<svg width="100%" viewBox="0 0 680 860" xmlns="http://www.w3.org/2000/svg">
<defs>
  <marker id="arrow" viewBox="0 0 10 10" refX="8" refY="5" markerWidth="6" markerHeight="6" orient="auto-start-reverse">
    <path d="M2 1L8 5L2 9" fill="none" stroke="context-stroke" stroke-width="1.5" stroke-linecap="round" stroke-linejoin="round"/>
  </marker>
  <marker id="arrow-blue" viewBox="0 0 10 10" refX="8" refY="5" markerWidth="6" markerHeight="6" orient="auto-start-reverse">
    <path d="M2 1L8 5L2 9" fill="none" stroke="#85B7EB" stroke-width="1.5" stroke-linecap="round" stroke-linejoin="round"/>
  </marker>
  <marker id="arrow-purple" viewBox="0 0 10 10" refX="8" refY="5" markerWidth="6" markerHeight="6" orient="auto-start-reverse">
    <path d="M2 1L8 5L2 9" fill="none" stroke="#AFA9EC" stroke-width="1.5" stroke-linecap="round" stroke-linejoin="round"/>
  </marker>
</defs>

<!-- ══ ROW 0 — Sources ══ -->
<g style="cursor:pointer">
  <rect x="50" y="30" width="140" height="52" rx="8" stroke-width="0.5" style="fill:#085041;stroke:#5DCAA5"/>
  <text x="120" y="51" text-anchor="middle" dominant-baseline="central" style="fill:#9FE1CB;font-size:14px;font-weight:500;font-family:sans-serif">Parquet files</text>
  <text x="120" y="68" text-anchor="middle" dominant-baseline="central" style="fill:#5DCAA5;font-size:12px;font-family:sans-serif">batch_files/*.parquet.gz</text>
</g>
<g style="cursor:pointer">
  <rect x="490" y="30" width="140" height="52" rx="8" stroke-width="0.5" style="fill:#085041;stroke:#5DCAA5"/>
  <text x="560" y="51" text-anchor="middle" dominant-baseline="central" style="fill:#9FE1CB;font-size:14px;font-weight:500;font-family:sans-serif">EIA API</text>
  <text x="560" y="68" text-anchor="middle" dominant-baseline="central" style="fill:#5DCAA5;font-size:12px;font-family:sans-serif">Live endpoint</text>
</g>

<!-- ══ ROW 1 — Airflow DAGs ══ -->
<rect x="30" y="135" width="620" height="165" rx="14" fill="none" style="stroke:rgba(180,178,169,0.3);stroke-width:1px;stroke-dasharray:6px,4px"/>
<text x="52" y="151" dominant-baseline="central" style="fill:#C2C0B6;font-size:12px;font-family:sans-serif">Apache Airflow · DAG orchestration</text>

<g style="cursor:pointer">
  <rect x="50" y="163" width="128" height="52" rx="8" stroke-width="0.5" style="fill:#3C3489;stroke:#AFA9EC"/>
  <text x="114" y="184" text-anchor="middle" dominant-baseline="central" style="fill:#CECBF6;font-size:13px;font-weight:500;font-family:sans-serif">seed_lookup_tables</text>
  <text x="114" y="201" text-anchor="middle" dominant-baseline="central" style="fill:#AFA9EC;font-size:11px;font-family:sans-serif">Run once on setup</text>
</g>

<!-- local_ingestion — PREFERRED -->
<g style="cursor:pointer">
  <rect x="193" y="158" width="148" height="62" rx="8" stroke-width="1.5" style="fill:#3C3489;stroke:#CECBF6"/>
  <text x="267" y="178" text-anchor="middle" dominant-baseline="central" style="fill:#EEEDFE;font-size:13px;font-weight:500;font-family:sans-serif">local_ingestion</text>
  <text x="267" y="195" text-anchor="middle" dominant-baseline="central" style="fill:#CECBF6;font-size:11px;font-family:sans-serif">Reads Parquet locally</text>
  <text x="267" y="210" text-anchor="middle" dominant-baseline="central" style="fill:#FAC775;font-size:10px;font-weight:500;font-family:sans-serif">★ preferred</text>
</g>

<!-- monthly_historical — optional, dimmed -->
<g style="cursor:pointer">
  <rect x="355" y="163" width="148" height="52" rx="8" stroke-width="0.5" style="fill:#26215C;stroke:#7F77DD;opacity:0.75"/>
  <text x="429" y="180" text-anchor="middle" dominant-baseline="central" style="fill:#AFA9EC;font-size:13px;font-weight:500;font-family:sans-serif">monthly_historical</text>
  <text x="429" y="197" text-anchor="middle" dominant-baseline="central" style="fill:#7F77DD;font-size:11px;font-family:sans-serif">Hits EIA API · slower</text>
</g>
<rect x="390" y="153" width="80" height="16" rx="4" style="fill:#633806;stroke:none"/>
<text x="430" y="161" text-anchor="middle" dominant-baseline="central" style="fill:#FAC775;font-size:10px;font-weight:500;font-family:sans-serif">optional</text>

<!-- daily_data -->
<g style="cursor:pointer">
  <rect x="518" y="163" width="118" height="52" rx="8" stroke-width="0.5" style="fill:#3C3489;stroke:#AFA9EC"/>
  <text x="577" y="184" text-anchor="middle" dominant-baseline="central" style="fill:#CECBF6;font-size:13px;font-weight:500;font-family:sans-serif">daily_data</text>
  <text x="577" y="201" text-anchor="middle" dominant-baseline="central" style="fill:#AFA9EC;font-size:11px;font-family:sans-serif">Daily schedule</text>
</g>

<!-- Cosmos pill -->
<g style="cursor:pointer">
  <rect x="130" y="250" width="420" height="34" rx="6" stroke-width="0.5" style="fill:#444441;stroke:#B4B2A9"/>
  <text x="340" y="267" text-anchor="middle" dominant-baseline="central" style="fill:#B4B2A9;font-size:12px;font-family:sans-serif">Airflow Cosmos · runs dbt as native Airflow tasks</text>
</g>

<!-- ══ ROW 2 — GCS + BQ Landing ══ -->
<g style="cursor:pointer">
  <rect x="140" y="338" width="400" height="48" rx="8" stroke-width="0.5" style="fill:#085041;stroke:#5DCAA5"/>
  <text x="340" y="356" text-anchor="middle" dominant-baseline="central" style="fill:#9FE1CB;font-size:14px;font-weight:500;font-family:sans-serif">GCS bucket</text>
  <text x="340" y="373" text-anchor="middle" dominant-baseline="central" style="fill:#5DCAA5;font-size:12px;font-family:sans-serif">Raw data landing · written by ingestion DAGs</text>
</g>
<g style="cursor:pointer">
  <rect x="140" y="408" width="400" height="52" rx="8" stroke-width="0.5" style="fill:#0C447C;stroke:#85B7EB"/>
  <text x="340" y="428" text-anchor="middle" dominant-baseline="central" style="fill:#B5D4F4;font-size:14px;font-weight:500;font-family:sans-serif">BigQuery — landing layer</text>
  <text x="340" y="446" text-anchor="middle" dominant-baseline="central" style="fill:#85B7EB;font-size:12px;font-family:sans-serif">Source of truth · all raw EIA records, append-only</text>
</g>

<!-- ══ ROW 3 — dbt layers ══ -->
<rect x="30" y="502" width="620" height="158" rx="14" fill="none" style="stroke:rgba(180,178,169,0.3);stroke-width:1px;stroke-dasharray:6px,4px"/>
<text x="52" y="518" dominant-baseline="central" style="fill:#C2C0B6;font-size:12px;font-family:sans-serif">dbt transformation layers · BigQuery</text>

<g style="cursor:pointer">
  <rect x="50" y="526" width="155" height="52" rx="8" stroke-width="0.5" style="fill:#185FA5;stroke:#85B7EB"/>
  <text x="127" y="547" text-anchor="middle" dominant-baseline="central" style="fill:#B5D4F4;font-size:14px;font-weight:500;font-family:sans-serif">Staging</text>
  <text x="127" y="564" text-anchor="middle" dominant-baseline="central" style="fill:#85B7EB;font-size:12px;font-family:sans-serif">Type, rename, clean</text>
</g>
<g style="cursor:pointer">
  <rect x="263" y="526" width="155" height="52" rx="8" stroke-width="0.5" style="fill:#185FA5;stroke:#85B7EB"/>
  <text x="340" y="547" text-anchor="middle" dominant-baseline="central" style="fill:#B5D4F4;font-size:14px;font-weight:500;font-family:sans-serif">Intermediate</text>
  <text x="340" y="564" text-anchor="middle" dominant-baseline="central" style="fill:#85B7EB;font-size:12px;font-family:sans-serif">Joins, business logic</text>
</g>
<g style="cursor:pointer">
  <rect x="475" y="526" width="155" height="52" rx="8" stroke-width="0.5" style="fill:#185FA5;stroke:#85B7EB"/>
  <text x="552" y="547" text-anchor="middle" dominant-baseline="central" style="fill:#B5D4F4;font-size:14px;font-weight:500;font-family:sans-serif">Marts</text>
  <text x="552" y="564" text-anchor="middle" dominant-baseline="central" style="fill:#85B7EB;font-size:12px;font-family:sans-serif">Hourly / daily / monthly</text>
</g>

<g style="cursor:pointer">
  <rect x="130" y="592" width="420" height="32" rx="6" stroke-width="0.5" style="fill:#444441;stroke:#B4B2A9"/>
  <text x="340" y="608" text-anchor="middle" dominant-baseline="central" style="fill:#B4B2A9;font-size:12px;font-family:sans-serif">dbt seeds · static lookup / reference tables</text>
</g>

<!-- ══ ROW 4 — Outputs ══ -->
<g style="cursor:pointer">
  <rect x="50" y="688" width="175" height="52" rx="8" stroke-width="0.5" style="fill:#0C447C;stroke:#85B7EB"/>
  <text x="137" y="709" text-anchor="middle" dominant-baseline="central" style="fill:#B5D4F4;font-size:14px;font-weight:500;font-family:sans-serif">BigQuery</text>
  <text x="137" y="726" text-anchor="middle" dominant-baseline="central" style="fill:#85B7EB;font-size:12px;font-family:sans-serif">Mart tables (primary)</text>
</g>
<g style="cursor:pointer">
  <rect x="253" y="688" width="175" height="52" rx="8" stroke-width="0.5" style="fill:#0C447C;stroke:#85B7EB"/>
  <text x="340" y="709" text-anchor="middle" dominant-baseline="central" style="fill:#B5D4F4;font-size:14px;font-weight:500;font-family:sans-serif">PostgreSQL</text>
  <text x="340" y="726" text-anchor="middle" dominant-baseline="central" style="fill:#85B7EB;font-size:12px;font-family:sans-serif">Airflow metadata store</text>
</g>
<g style="cursor:pointer">
  <rect x="453" y="688" width="178" height="52" rx="8" stroke-width="0.5" style="fill:#633806;stroke:#EF9F27"/>
  <text x="542" y="709" text-anchor="middle" dominant-baseline="central" style="fill:#FAC775;font-size:14px;font-weight:500;font-family:sans-serif">CSV files</text>
  <text x="542" y="726" text-anchor="middle" dominant-baseline="central" style="fill:#EF9F27;font-size:12px;font-family:sans-serif">streamlit/*.csv fallback</text>
</g>

<!-- ══ ROW 5 — Streamlit ══ -->
<g style="cursor:pointer">
  <rect x="250" y="796" width="180" height="44" rx="8" stroke-width="0.5" style="fill:#27500A;stroke:#97C459"/>
  <text x="340" y="814" text-anchor="middle" dominant-baseline="central" style="fill:#C0DD97;font-size:14px;font-weight:500;font-family:sans-serif">Streamlit</text>
  <text x="340" y="830" text-anchor="middle" dominant-baseline="central" style="fill:#97C459;font-size:12px;font-family:sans-serif">Interactive dashboard</text>
</g>

<!-- Infra strip -->
<g style="cursor:pointer">
  <rect x="50" y="800" width="165" height="32" rx="6" stroke-width="0.5" style="fill:#444441;stroke:#B4B2A9"/>
  <text x="132" y="816" text-anchor="middle" dominant-baseline="central" style="fill:#B4B2A9;font-size:12px;font-family:sans-serif">Terraform · IaC</text>
</g>
<g style="cursor:pointer">
  <rect x="465" y="800" width="165" height="32" rx="6" stroke-width="0.5" style="fill:#444441;stroke:#B4B2A9"/>
  <text x="547" y="816" text-anchor="middle" dominant-baseline="central" style="fill:#B4B2A9;font-size:12px;font-family:sans-serif">Docker · local dev</text>
</g>

<!-- ══ WAVY CONNECTORS ══ -->

<!-- Parquet files batch_files/*.parquet.gz → local_ingestion -->
<path d="M120 82 C110 108 150 126 267 157" fill="none" stroke="#9C9A92" stroke-width="1.2" marker-end="url(#arrow)"/>

<!-- EIA API → monthly_historical (start very bottom, straight-ish) -->
<path d="M560 83 C560 100 460 150 450 160" fill="none" stroke="#9C9A92" stroke-width="1.2" marker-end="url(#arrow)"/>

<!-- EIA API → daily_data (start very bottom, straight-ish) -->
<path d="M560 83 C560 100 555 150 550 160" fill="none" stroke="#9C9A92" stroke-width="1.2" marker-end="url(#arrow)"/>

<!-- local_ingestion → GCS (preferred, teal) -->
<path d="M267 220 C260 256 298 286 314 337" fill="none" stroke="#5DCAA5" stroke-width="1.5" marker-end="url(#arrow)"/>
<!-- monthly_historical → GCS (optional, dimmed dashed) -->
<path d="M429 215 C432 256 406 282 392 337" fill="none" stroke="#7F77DD" stroke-width="1" stroke-dasharray="5 3" marker-end="url(#arrow)" opacity="0.7"/>


<!-- daily_data → BQ landing (solid purple, right-side arc) -->
<path d="M636 189 C656 230 660 290 660 360 C660 390 560 420 541 408" fill="none" stroke="#AFA9EC" stroke-width="1.2" marker-end="url(#arrow-purple)"/>

<!-- seed_lookup → BQ landing -->
<path d="M114 215 C110 262 154 322 190 407" fill="none" stroke="#9C9A92" stroke-width="1.2" marker-end="url(#arrow)"/>

<!-- GCS → BQ landing -->
<path d="M340 386 C344 392 336 397 340 402 C343 397 337 401 340 407" fill="none" stroke="#9C9A92" stroke-width="1.2" marker-end="url(#arrow)"/>

<!-- BQ landing → dbt staging -->
<path d="M250 460 C230 476 194 492 178 525" fill="none" stroke="#9C9A92" stroke-width="1.2" marker-end="url(#arrow)"/>

<!-- Staging → Intermediate -->
<path d="M205 552 C220 545 238 559 252 552 C258 549 261 551 263 552" fill="none" stroke="#9C9A92" stroke-width="1.2" marker-end="url(#arrow)"/>
<!-- Intermediate → Marts -->
<path d="M418 552 C434 545 450 559 464 552 C470 549 473 551 475 552" fill="none" stroke="#9C9A92" stroke-width="1.2" marker-end="url(#arrow)"/>

<!-- daily_data triggers dbt via Cosmos (dashed purple, further right) -->
<path d="M636 215 C648 340 648 460 630 525" fill="none" stroke="#AFA9EC" stroke-width="1" stroke-dasharray="4 3" marker-end="url(#arrow-purple)"/>
<text x="658" y="390" text-anchor="middle" dominant-baseline="central" style="fill:#AFA9EC;font-size:10px;font-family:sans-serif;writing-mode:tb">triggers dbt</text>

<!-- Marts → BigQuery mart output -->
<path d="M552 578 C540 606 452 630 382 652 C320 668 234 670 202 688" fill="none" stroke="#9C9A92" stroke-width="1.2" marker-end="url(#arrow)"/>

<!-- Airflow → PostgreSQL (dashed blue, right side) -->
<path d="M550 284 C570 340 580 460 580 580 C580 640 500 680 428 688" fill="none" stroke="#85B7EB" stroke-width="1" stroke-dasharray="4 3" marker-end="url(#arrow-blue)"/>

<!-- BigQuery mart → Streamlit -->
<path d="M180 740 C188 758 212 770 240 780 C254 784 260 790 265 796" fill="none" stroke="#9C9A92" stroke-width="1.2" marker-end="url(#arrow)"/>
<!-- CSV → Streamlit (fallback, dashed) -->
<path d="M510 740 C502 758 516 770 504 782 C494 790 440 792 415 796" fill="none" stroke="#B4B2A9" stroke-width="1" stroke-dasharray="5 4" marker-end="url(#arrow)"/>
<text x="488" y="772" text-anchor="middle" style="fill:#888780;font-size:11px;font-family:sans-serif">fallback</text>

</svg>
